<svg width="146" height="329" viewBox="0 0 146 329" fill="none" xmlns="http://www.w3.org/2000/svg">
<path d="M31.2417 230.457C29.4929 238.661 27.4821 253.283 26.2323 267.271C24.7139 284.265 24.4064 298.511 25.7445 307.602C26.6291 313.612 32.2187 317.767 38.229 316.883C44.2394 315.998 48.3946 310.409 47.51 304.398C46.4934 297.491 46.7716 284.6 48.145 269.229C49.3221 256.056 51.2177 242.271 52.7583 235.043C54.0248 229.102 50.2348 223.258 44.2932 221.992C38.3515 220.725 32.5082 224.515 31.2417 230.457Z" fill="#F5D0C3"/>
<path d="M75.7284 245.729C77.2491 253.079 78.7515 264.009 79.5983 274.509C80.581 286.695 80.626 297.338 79.6108 304.444C78.7516 310.458 82.9305 316.03 88.9446 316.889C94.9587 317.749 100.531 313.57 101.39 307.556C102.681 298.517 102.63 286.413 101.527 272.741C100.61 261.374 98.9855 249.553 97.2721 241.271C96.0413 235.322 90.2207 231.497 84.2716 232.728C78.3224 233.959 74.4975 239.78 75.7284 245.729Z" fill="#F5D0C3"/>
<path d="M65.2502 231L23.8752 209C23.8752 209 18.7896 218.965 15.1484 231C12.2163 240.691 10.4983 252.603 11.0002 255C12.1252 260.375 50.3752 268.25 55.8752 265.5C61.3752 262.75 65.2502 231 65.2502 231Z" fill="#232526"/>
<path d="M65.0002 248.75C89.0246 248.75 108.5 237.557 108.5 223.75C108.5 209.943 89.0246 198.75 65.0002 198.75C40.9759 198.75 21.5002 209.943 21.5002 223.75C21.5002 237.557 40.9759 248.75 65.0002 248.75Z" fill="#232526"/>
<path d="M62.5235 229.875L105.023 206.75C105.023 206.75 109.808 220.094 113.023 233.25C115.875 244.917 117.271 256.438 116.273 258.375C114.15 262.5 74.772 269 71.0235 265.5C67.275 262 62.5235 229.875 62.5235 229.875Z" fill="#232526"/>
<path d="M100.241 313.625C101.441 312.725 102.116 300.875 102.116 297.875C91.6157 302.625 83.7407 298.75 79.9907 297.25C79.3657 301 79.1157 306.25 79.1157 310.25C80.3657 313.875 98.7407 314.75 100.241 313.625Z" fill="#EDF0F4"/>
<path d="M125.366 327.358C125.366 315.683 115.902 306.22 104.228 306.22H101.058H98.3428C98.3428 306.22 98.6243 310.933 89.4757 310.933C80.3275 310.933 79.0608 306.22 79.0608 306.22H77.906C77.2678 306.22 76.75 306.738 76.75 307.375V326.033C76.75 327.63 78.044 328.923 79.64 328.923H123.8C124.665 328.923 125.366 328.223 125.366 327.358Z" fill="#3B3F45"/>
<mask id="mask0" style="mask-type:alpha" maskUnits="userSpaceOnUse" x="76" y="306" width="50" height="23">
<path fill-rule="evenodd" clip-rule="evenodd" d="M125.366 327.358C125.366 315.683 115.902 306.22 104.228 306.22H101.058H94.981H88.904H82.827H76.75V326.033C76.75 327.63 78.044 328.923 79.64 328.923H123.8C124.665 328.923 125.366 328.223 125.366 327.358Z" fill="white"/>
</mask>
<g mask="url(#mask0)">
<path d="M119.727 314.598C123.372 312.538 121.943 316.62 125.218 318.353L132.153 331.648H76.958C75.6095 329.72 70.7367 319.73 74.6157 318.353C81.7407 315.825 94.297 324.568 99.4985 324.278C104.7 323.99 119.59 326.155 118.716 321.533C117.704 316.188 116.404 316.475 119.727 314.598Z" fill="#555D65"/>
<path d="M97.7287 317.195C99.454 317.665 100.844 317.602 101.632 317.003C103.662 315.44 102.362 313.058 101.811 312.125C102.803 313.268 103.789 314.415 104.559 315.665C105.772 317.617 106.286 319.763 105.468 321.135C104.001 323.615 100.474 322.47 98.226 321.472L77.3657 312.218L97.7287 317.195Z" fill="#7F8389"/>
</g>
<path d="M105.987 312.26C105.559 312.947 106.224 313.793 106.993 313.541L113.327 311.466L111.071 314.676C110.795 315.068 110.89 315.609 111.281 315.884C111.673 316.16 112.214 316.065 112.489 315.674L116.246 310.329C116.726 309.646 116.059 308.747 115.267 309.006L108.717 311.152L110.782 307.83C111.201 307.158 110.572 306.322 109.81 306.538L102.965 308.479C103.224 308.213 103.553 307.932 103.952 307.633C104.225 307.428 105.188 306.753 105.365 306.621C105.748 306.334 105.825 305.79 105.538 305.407C105.25 305.024 104.707 304.947 104.324 305.234C104.178 305.344 103.215 306.018 102.912 306.246C101.359 307.41 100.51 308.472 100.51 309.83C100.51 310.405 101.06 310.821 101.613 310.664L108.127 308.818L105.987 312.26Z" fill="#7F8389"/>
<path fill-rule="evenodd" clip-rule="evenodd" d="M107.995 305.654C106.929 306.365 105.56 306.792 104.411 306.792C103.865 306.792 103.462 306.694 103.174 306.494C102.905 306.311 102.733 306.036 102.634 305.655C102.547 305.323 102.514 304.919 102.512 304.335C102.511 304.126 102.513 303.979 102.522 303.521L102.522 303.517L102.523 303.447C102.53 303.074 102.533 302.853 102.533 302.605C102.533 300.037 104.213 298.126 106.434 298.126C107.515 298.126 108.396 298.577 109.005 299.406C109.59 300.201 109.902 301.32 109.902 302.605C109.902 303.789 109.196 304.856 107.995 305.654ZM104.255 303.558C104.247 303.997 104.245 304.138 104.246 304.33C104.247 304.653 104.259 304.889 104.281 305.055C104.32 305.057 104.363 305.058 104.411 305.058C105.212 305.058 106.248 304.735 107.035 304.21C107.792 303.707 108.168 303.139 108.168 302.605C108.168 301.667 107.956 300.906 107.609 300.434C107.324 300.046 106.96 299.859 106.434 299.859C105.224 299.859 104.267 300.948 104.267 302.605C104.267 302.866 104.264 303.096 104.257 303.479L104.255 303.554L104.255 303.558Z" fill="#7F8389"/>
<path fill-rule="evenodd" clip-rule="evenodd" d="M102.958 306.607L103.108 306.412L103.127 306.218C103.129 306.207 103.13 306.197 103.132 306.182C103.148 306.083 103.146 305.95 103.122 305.807C103.082 305.561 102.984 305.278 102.812 304.888C102.75 304.747 102.708 304.658 102.563 304.348L102.551 304.322C102.442 304.09 102.362 303.918 102.281 303.735C101.513 302.01 99.8016 301.24 98.2959 301.911C97.5624 302.238 97.0992 302.808 96.9331 303.548C96.774 304.257 96.8957 305.099 97.2791 305.96C97.6309 306.754 98.4268 307.257 99.4841 307.431C100.42 307.582 101.476 307.454 102.255 307.107C102.607 306.953 102.817 306.791 102.958 306.607ZM98.6249 303.927C98.6715 303.72 98.7709 303.597 99.002 303.494C99.5898 303.232 100.302 303.553 100.697 304.44C100.784 304.637 100.868 304.818 100.991 305.079L101.003 305.103C101.132 305.38 101.171 305.464 101.226 305.588L101.245 305.632C100.802 305.758 100.248 305.798 99.763 305.719C99.2366 305.633 98.9503 305.452 98.8636 305.256C98.622 304.714 98.5541 304.243 98.6249 303.927Z" fill="#7F8389"/>
<path d="M26.7593 313.625C25.5593 312.725 24.8843 300.875 24.8843 297.875C35.3843 302.625 43.2593 298.75 47.0093 297.25C47.6343 301 47.8843 306.25 47.8843 310.25C46.6343 313.875 28.2593 314.75 26.7593 313.625Z" fill="#EDF0F4"/>
<path d="M1.63425 327.358C1.63425 315.683 11.098 306.22 22.7722 306.22H25.942H28.6572C28.6572 306.22 28.3757 310.933 37.5243 310.933C46.6725 310.933 47.9392 306.22 47.9392 306.22H49.094C49.7322 306.22 50.25 306.738 50.25 307.375V326.033C50.25 327.63 48.956 328.923 47.36 328.923H3.2C2.33525 328.923 1.63425 328.223 1.63425 327.358Z" fill="#3B3F45"/>
<mask id="mask1" style="mask-type:alpha" maskUnits="userSpaceOnUse" x="1" y="306" width="50" height="23">
<path fill-rule="evenodd" clip-rule="evenodd" d="M1.63425 327.358C1.63425 315.683 11.098 306.22 22.7722 306.22H25.942H32.019H38.096H44.173H50.25V326.033C50.25 327.63 48.956 328.923 47.36 328.923H3.2C2.33525 328.923 1.63425 328.223 1.63425 327.358Z" fill="white"/>
</mask>
<g mask="url(#mask1)">
<path d="M7.27276 314.598C3.62776 312.538 5.05726 316.62 1.78201 318.353L-5.15349 331.648H50.042C51.3905 329.72 56.2633 319.73 52.3843 318.353C45.2593 315.825 32.703 324.568 27.5015 324.278C22.2998 323.99 7.40951 326.155 8.28401 321.533C9.29551 316.188 10.596 316.475 7.27276 314.598Z" fill="#555D65"/>
<path d="M29.2713 317.195C27.546 317.665 26.1555 317.602 25.3675 317.003C23.338 315.44 24.6375 313.058 25.1888 312.125C24.1965 313.268 23.2108 314.415 22.4413 315.665C21.2283 317.617 20.7135 319.763 21.5318 321.135C22.9993 323.615 26.526 322.47 28.774 321.472L49.6343 312.218L29.2713 317.195Z" fill="#7F8389"/>
</g>
<path d="M21.0133 312.26C21.4407 312.947 20.7764 313.793 20.0071 313.541L13.673 311.466L15.9293 314.676C16.2046 315.068 16.1103 315.609 15.7186 315.884C15.3268 316.16 14.7861 316.065 14.5108 315.674L10.754 310.329C10.2744 309.646 10.9406 308.747 11.7332 309.006L18.2827 311.152L16.2175 307.83C15.7993 307.158 16.428 306.322 17.1902 306.538L24.0345 308.479C23.7759 308.213 23.4473 307.932 23.048 307.633C22.7749 307.428 21.8117 306.753 21.6352 306.621C21.2522 306.334 21.1747 305.79 21.4621 305.407C21.7495 305.024 22.2929 304.947 22.6759 305.234C22.8221 305.344 23.785 306.018 24.0885 306.246C25.6413 307.41 26.4902 308.472 26.4902 309.83C26.4902 310.405 25.9403 310.821 25.3869 310.664L18.8732 308.818L21.0133 312.26Z" fill="#7F8389"/>
<path fill-rule="evenodd" clip-rule="evenodd" d="M19.0048 305.654C20.0708 306.365 21.44 306.792 22.5887 306.792C23.1347 306.792 23.5378 306.694 23.8258 306.494C24.0946 306.311 24.2668 306.036 24.3659 305.655C24.4527 305.323 24.4862 304.919 24.4879 304.335C24.4886 304.126 24.4866 303.979 24.4782 303.521L24.478 303.517L24.4768 303.447C24.47 303.074 24.4672 302.853 24.4672 302.605C24.4672 300.037 22.7873 298.126 20.566 298.126C19.4854 298.126 18.6042 298.577 17.9945 299.406C17.4103 300.201 17.098 301.32 17.098 302.605C17.098 303.789 17.804 304.856 19.0048 305.654ZM22.7447 303.558C22.7527 303.997 22.7546 304.138 22.7541 304.33C22.7531 304.653 22.7408 304.889 22.7185 305.055C22.68 305.057 22.6368 305.058 22.5887 305.058C21.7876 305.058 20.752 304.735 19.9653 304.21C19.2076 303.707 18.8319 303.139 18.8319 302.605C18.8319 301.667 19.0443 300.906 19.3915 300.434C19.6764 300.046 20.0403 299.859 20.566 299.859C21.7764 299.859 22.7333 300.948 22.7333 302.605C22.7333 302.866 22.7362 303.096 22.7432 303.479L22.7446 303.554L22.7447 303.558Z" fill="#7F8389"/>
<path fill-rule="evenodd" clip-rule="evenodd" d="M24.0422 306.607L23.8921 306.412L23.8727 306.218C23.8709 306.207 23.8696 306.197 23.8676 306.182C23.8515 306.083 23.8545 305.95 23.878 305.807C23.9177 305.561 24.0159 305.278 24.1883 304.888C24.2505 304.747 24.2915 304.658 24.4366 304.348L24.4491 304.322C24.5583 304.09 24.6376 303.918 24.7192 303.735C25.4867 302.01 27.1984 301.24 28.7041 301.911C29.4376 302.238 29.9008 302.808 30.0669 303.548C30.226 304.257 30.1043 305.099 29.7209 305.96C29.3691 306.754 28.5732 307.257 27.5159 307.431C26.5795 307.582 25.5237 307.454 24.7449 307.107C24.3931 306.953 24.1831 306.791 24.0422 306.607ZM28.3751 303.927C28.3285 303.72 28.2291 303.597 27.998 303.494C27.4102 303.232 26.6981 303.553 26.3033 304.44C26.2156 304.637 26.1318 304.818 26.0088 305.079L25.9974 305.103C25.8682 305.38 25.8293 305.464 25.7744 305.588L25.7553 305.632C26.1984 305.758 26.7521 305.798 27.237 305.719C27.7634 305.633 28.0497 305.452 28.1364 305.256C28.378 304.714 28.4459 304.243 28.3751 303.927Z" fill="#7F8389"/>
<path d="M19.0381 128.909C15.3041 134.62 9.61248 147.351 5.89496 159.455C3.4574 167.391 1.78102 175.138 1.06337 182.489C0.186562 191.47 0.748147 199.706 3.09207 207.05C5.19102 213.627 12.2241 217.257 18.8008 215.158C25.3775 213.059 29.0075 206.026 26.9086 199.45C24.515 191.95 25.6558 180.266 29.7931 166.795C31.4773 161.312 33.5687 155.824 35.7985 150.836C37.5067 147.015 39.1768 143.792 39.9624 142.591C43.7403 136.813 42.1189 129.066 36.3408 125.288C30.5627 121.51 22.8161 123.131 19.0381 128.909Z" fill="#F5D0C3"/>
<path d="M95.5378 141.841C96.0675 142.651 98.3517 145.949 98.7648 146.559C100.184 148.656 101.381 150.543 102.508 152.508C108.609 163.145 110.795 172.947 107.842 182.199C105.743 188.776 109.373 195.809 115.949 197.908C122.526 200.007 129.559 196.377 131.658 189.8C134.655 180.41 134.848 170.846 132.725 161.332C131.077 153.941 128.143 146.956 124.195 140.071C122.725 137.507 121.208 135.116 119.466 132.543C118.888 131.69 116.774 128.637 116.462 128.159C112.684 122.381 104.937 120.76 99.1593 124.538C93.3813 128.316 91.7599 136.063 95.5378 141.841Z" fill="#F5D0C3"/>
<path d="M41.6252 117.25V125.25L38.2502 138.5L37.2502 153.5L27.3752 164.375L20.2502 128.625L22.1252 118.375L27.3752 114.25L31.6252 117.25L35.1252 115.25L41.6252 117.25Z" fill="#4E5051"/>
<path d="M93.2502 118V126L96.6252 139.25L97.6252 154.25L107.5 165.125L114.625 129.375L112.75 119.125L107.5 115L103.25 118L99.7502 116L93.2502 118Z" fill="#4E5051"/>
<path d="M31.2068 127.221C32.4836 119.734 38.9426 114.282 46.5376 114.214L70.1186 114.004L92.2593 115.883C99.3158 116.483 105.098 121.707 106.243 128.696C108.754 144.03 112.689 171.074 112.689 189.954C112.689 217.68 118.161 220.332 109.689 223.965C101.218 227.598 33.4428 227.087 24.1893 221.454C14.9359 215.822 20.6893 209.954 20.6893 198.454C20.6893 190.012 27.5553 148.631 31.2068 127.221Z" fill="#595B5E"/>
<rect x="46.6718" y="152.504" width="43.75" height="35.25" fill="#232426"/>
<path fill-rule="evenodd" clip-rule="evenodd" d="M88.1718 149.004H48.6718C45.6342 149.004 43.1718 151.466 43.1718 154.504V185.754C43.1718 188.792 45.6342 191.254 48.6718 191.254H88.1718C91.2093 191.254 93.6718 188.792 93.6718 185.754V154.504C93.6718 151.466 91.2093 149.004 88.1718 149.004ZM46.6718 154.504C46.6718 153.399 47.5672 152.504 48.6718 152.504H88.1718C89.2763 152.504 90.1718 153.399 90.1718 154.504V185.754C90.1718 186.859 89.2763 187.754 88.1718 187.754H48.6718C47.5672 187.754 46.6718 186.859 46.6718 185.754V154.504Z" fill="#454748"/>
<path d="M50.706 163.977C50.0031 164.416 49.7888 165.341 50.2273 166.044C50.6659 166.747 51.5911 166.961 52.294 166.523L58.7612 162.488C59.7069 161.898 59.7015 160.519 58.7513 159.936L52.284 155.971C51.5777 155.538 50.6542 155.76 50.2212 156.466C49.7882 157.172 50.0097 158.096 50.716 158.529L55.1156 161.226L50.706 163.977Z" fill="white"/>
<path d="M59.75 168.75H67.4826C68.3111 168.75 68.9826 168.078 68.9826 167.25C68.9826 166.422 68.3111 165.75 67.4826 165.75H59.75C58.9216 165.75 58.25 166.422 58.25 167.25C58.25 168.078 58.9216 168.75 59.75 168.75Z" fill="white"/>
<path d="M67.1252 140C75.3405 140 82.0002 132.893 82.0002 124.125C82.0002 115.357 75.3405 108.25 67.1252 108.25C58.91 108.25 52.2502 115.357 52.2502 124.125C52.2502 132.893 58.91 140 67.1252 140Z" fill="#454748"/>
<rect x="57.7603" y="106.254" width="19.2142" height="28.8213" rx="9.60707" fill="#EBBAAA"/>
<rect x="57.75" y="174.445" width="78.1072" height="55.25" rx="8.5" transform="rotate(-7.5 57.75 174.445)" fill="#BCC4CF"/>
<rect x="60.5" y="176.195" width="78.1072" height="55.25" rx="7.25" transform="rotate(-7.5 60.5 176.195)" fill="#D3D8DF"/>
<path d="M107.708 195.755C107.19 192.016 109.28 191.642 109.367 191.57C107.956 189.996 106.081 189.967 105.422 190.027C103.836 190.074 102.486 191.333 101.691 191.438C100.898 191.543 99.5515 190.798 98.2563 190.992C96.5535 191.242 95.1055 192.413 94.426 194.058C93.058 197.369 94.9773 201.754 97.0348 204.021C98.0395 205.132 99.228 206.372 100.545 206.149C101.811 205.931 102.191 205.092 103.731 204.89C105.272 204.687 105.811 205.456 107.157 205.25C108.523 205.045 109.232 203.71 109.907 202.374C110.691 200.828 110.919 199.473 110.932 199.4C110.901 199.39 108.062 198.247 107.706 195.755L107.708 195.755Z" fill="white"/>
<path d="M101.455 190.681C101.089 187.905 103.043 185.356 105.822 184.99C106.187 187.769 104.231 190.316 101.455 190.681Z" fill="white"/>
<path d="M100.464 203.841C99.6863 209.936 103.996 215.507 110.091 216.285C117.082 217.178 123.246 214.203 127.487 208.74C130.47 204.897 132.454 199.955 133.667 194.2C135.72 184.459 135.465 172.393 133.052 162.591C131.584 156.625 125.557 152.979 119.591 154.447C113.625 155.916 109.979 161.943 111.447 167.909C113.068 174.495 113.251 183.176 111.895 189.612C111.479 191.588 110.955 193.151 110.46 194.171C105.386 194.643 101.136 198.576 100.464 203.841Z" fill="#F5D0C3"/>
<path d="M30.2908 85.9724C38.3085 85.9724 44.8081 79.8073 44.8081 72.2022C44.8081 64.5972 38.3085 58.4321 30.2908 58.4321C22.273 58.4321 15.7734 64.5972 15.7734 72.2022C15.7734 79.8073 22.273 85.9724 30.2908 85.9724Z" fill="#EBBAAA"/>
<path d="M105.791 87.0399C113.808 87.0399 120.308 80.8748 120.308 73.2698C120.308 65.6647 113.808 59.4996 105.791 59.4996C97.773 59.4996 91.2734 65.6647 91.2734 73.2698C91.2734 80.8748 97.773 87.0399 105.791 87.0399Z" fill="#EBBAAA"/>
<path d="M25.125 44.125C25.7852 32.6055 34.2345 23.0298 45.5822 20.9403L61.5422 18.0014C67.375 16.9274 73.361 16.9991 79.1662 18.2124L109.25 24.5L113 62.125L113.791 73.9263C115.54 100.029 94.8385 122.164 68.677 122.164C42.7732 122.164 22.165 100.444 23.5245 74.5763L25.125 44.125Z" fill="#F4D4CA"/>
<path d="M53.44 97.5303C59.5899 101.884 73.7481 101.797 82.2399 97.6878C83.172 97.2368 83.5621 96.1155 83.111 95.1833C82.66 94.2512 81.5387 93.8612 80.6065 94.3122C73.2499 97.8719 60.5235 97.9506 55.6069 94.4697C54.7618 93.8713 53.5915 94.0714 52.9932 94.9166C52.3948 95.7617 52.5949 96.9319 53.44 97.5303Z" fill="#C99584"/>
<path d="M42.0525 56.9935L56.454 57.9435C58.1073 58.0526 59.5359 56.8007 59.645 55.1475C59.754 53.4942 58.5022 52.0656 56.849 51.9565L42.4475 51.0065C40.7942 50.8975 39.3656 52.1493 39.2565 53.8025C39.1474 55.4558 40.3993 56.8844 42.0525 56.9935Z" fill="#272727"/>
<path d="M79.0448 58.0438L93.222 56.9918C94.8743 56.8692 96.1144 55.4303 95.9918 53.778C95.8692 52.1257 94.4303 50.8856 92.778 51.0082L78.6008 52.0602C76.9485 52.1828 75.7084 53.6217 75.831 55.274C75.9536 56.9263 77.3925 58.1664 79.0448 58.0438Z" fill="#272727"/>
<path d="M85.7735 27.25C102.774 32.5 105.438 33.375 106.774 40C108.943 50.76 114.551 47.746 115.149 35.875C110.051 1.24603 81.5235 -1.75007 75.2735 1.74999C67.7735 5.95005 65.4943 20.9874 85.7735 27.25Z" fill="#393838"/>
<path d="M114.514 41.5C114.514 38.726 111.117 37.386 109.223 39.413L108.499 40.1887C107.73 41.0112 107.408 42.1552 107.633 43.258L111.714 63.2127C111.808 63.671 112.211 64 112.679 64C113.207 64 113.642 63.5825 113.662 63.0542L114.514 41.5Z" fill="#393838"/>
<path d="M68.25 28.5C47.0257 28.5 31.8985 33.875 27.6485 38.875C25.4793 49.6348 22.25 45.75 21.75 34.629C27 4 55.0165 0 68.25 0C80.0235 1.25 89.4743 28.5 68.25 28.5Z" fill="#272727"/>
<path d="M52.578 14.3905C55.2615 18.3127 59.2127 20.5826 56.7947 33.1903L70.9962 24.1918C66.0392 19.7174 49.8942 10.4684 52.578 14.3905Z" fill="#272727"/>
<path d="M41.5072 17.75C40.824 26.537 40.7735 36.5597 40.7735 36.5597L54.53 27.2235C54.53 27.2235 47.378 25.4387 41.5072 17.75Z" fill="#272727"/>
<path d="M33.7572 20.5694C33.074 29.3565 33.0235 39.3793 33.0235 39.3793L42.5235 31.3193C42.5235 31.3193 39.628 28.258 33.7572 20.5694Z" fill="#272727"/>
<path d="M53.0072 15.5C52.324 24.2871 52.2735 34.3097 52.2735 34.3097L66.03 24.9735C66.03 24.9735 58.878 23.1887 53.0072 15.5Z" fill="#272727"/>
<path d="M21.8649 36.5525C21.8022 35.0238 23.0247 33.75 24.5549 33.75C26.142 33.75 27.3848 35.116 27.2353 36.6962L24.6996 63.4627C24.6573 63.909 24.2826 64.25 23.8343 64.25C23.3681 64.25 22.9849 63.8822 22.9658 63.4165L21.8649 36.5525Z" fill="#272727"/>
<path d="M61.4882 68.1246L72.9882 68.3746L73.0588 65.1254L61.5588 64.8754L61.4882 68.1246Z" fill="#101013"/>
<path fill-rule="evenodd" clip-rule="evenodd" d="M32.1952 60.9112C29.9927 61.1499 28.3853 63.0912 28.5314 65.3283L29.3314 77.5633C29.4269 79.0219 30.2525 80.2537 31.5163 80.7686C35.5359 82.4073 40.6612 83.5 46.7735 83.5C52.6291 83.5 57.1827 82.8072 60.5272 81.7418C61.7674 81.3468 62.637 80.2329 62.8388 78.8341L64.5366 67.0622C64.825 65.0627 63.6725 63.1834 61.7916 62.6109C56.6084 61.0336 51.36 60 46.7735 60C42.3923 60 37.3192 60.3554 32.1952 60.9112ZM59.5245 78.6503C59.5258 78.6502 59.5281 78.6494 59.5313 78.6484L59.535 78.647C59.5315 78.6481 59.528 78.6492 59.5245 78.6503ZM59.5274 78.643C59.5229 78.6487 59.5221 78.6506 59.5245 78.6503C56.5035 79.6101 52.2879 80.25 46.7735 80.25C41.1015 80.25 36.3886 79.2453 32.743 77.759C32.7236 77.7511 32.6993 77.731 32.6717 77.6899C32.6216 77.615 32.5844 77.5024 32.5745 77.3511L31.7745 65.1163C31.7412 64.6063 32.084 64.1923 32.5456 64.1423C37.5633 63.598 42.5306 63.25 46.7735 63.25C50.9759 63.25 55.9424 64.2281 60.8454 65.7201C61.1696 65.8188 61.3823 66.1656 61.3199 66.5982L59.6221 78.37C59.6027 78.5046 59.5661 78.5933 59.5274 78.643Z" fill="#101013"/>
<path fill-rule="evenodd" clip-rule="evenodd" d="M87.5235 60C91.9045 60 96.9783 60.3555 102.101 60.9112C104.304 61.1499 105.912 63.0912 105.765 65.3283L104.965 77.5634C104.87 79.0217 104.044 80.2535 102.781 80.7685C98.7611 82.4073 93.6356 83.5 87.5235 83.5C81.6679 83.5 77.1145 82.8072 73.7693 81.7418C72.5294 81.3467 71.6599 80.2328 71.4581 78.834L69.7604 67.0623C69.4719 65.0626 70.6243 63.1833 72.5054 62.6109C77.6885 61.0336 82.937 60 87.5235 60ZM74.7725 78.6504C74.7713 78.6503 74.7693 78.6497 74.7666 78.6488L74.7643 78.6478C74.767 78.6487 74.7698 78.6495 74.7725 78.6504ZM74.7697 78.6431C74.7741 78.6488 74.775 78.6507 74.7725 78.6504C77.794 79.6102 82.0093 80.25 87.5235 80.25C93.1954 80.25 97.9085 79.2452 101.554 77.759C101.573 77.7512 101.598 77.731 101.625 77.6898C101.675 77.6149 101.713 77.5023 101.722 77.3512L102.522 65.1163C102.556 64.6065 102.213 64.1923 101.751 64.1423C96.7342 63.5981 91.7663 63.25 87.5235 63.25C83.3211 63.25 78.3546 64.2281 73.4516 65.7201C73.1273 65.8188 72.9147 66.1655 72.9771 66.5983L74.6748 78.3699C74.6943 78.5046 74.7309 78.5934 74.7697 78.6431Z" fill="#101013"/>
<path d="M64.7082 71.5832C64.6475 71.7101 64.3137 72.3946 64.2109 72.6085C63.9714 73.107 63.7657 73.5519 63.5673 74.0074C62.9695 75.38 62.5249 76.6557 62.2558 77.9C61.0781 83.3446 63.7038 87.125 70.5235 87.125V82.875C68.2649 82.875 67.0739 82.4071 66.5893 81.7094C66.1957 81.1427 66.1146 80.1628 66.4097 78.7985C66.6112 77.8671 66.9687 76.8411 67.4638 75.7044C67.6387 75.3029 67.8232 74.9038 68.0417 74.4491C68.1367 74.2514 68.4727 73.5622 68.5423 73.4168L64.7082 71.5832Z" fill="#EBBAAA"/>
<path d="M44.7737 74C47.7427 74 49.223 74.1169 50.9117 74.6235C52.4987 75.0996 54.1711 74.199 54.6472 72.612C55.1233 71.0251 54.2228 69.3526 52.6358 68.8765C50.2173 68.151 48.3048 68 44.7737 68C43.1169 68 41.7737 69.3431 41.7737 71C41.7737 72.6569 43.1169 74 44.7737 74Z" fill="black"/>
<path d="M90 67.5C86.4689 67.5 84.5564 67.651 82.138 68.3765C80.551 68.8526 79.6504 70.5251 80.1265 72.112C80.6026 73.699 82.2751 74.5996 83.862 74.1235C85.5507 73.6169 87.0311 73.5 90 73.5C91.6569 73.5 93 72.1569 93 70.5C93 68.8431 91.6569 67.5 90 67.5Z" fill="black"/>
</svg>
