<svg width="389" height="409" viewBox="0 0 389 409" fill="none" xmlns="http://www.w3.org/2000/svg">
<g filter="url(#filter0_dddddd)">
<rect x="80.6542" width="228.178" height="228.178" rx="57" fill="#EBE9E9"/>
</g>
<g filter="url(#filter1_i)">
<path fill-rule="evenodd" clip-rule="evenodd" d="M171.223 58.2286C177.151 57.9557 179.041 57.8951 194.143 57.8951C209.244 57.8951 211.134 57.9608 217.057 58.2286C222.98 58.4965 227.023 59.4416 230.561 60.8112C234.266 62.2111 237.627 64.3995 240.406 67.2297C243.236 70.0043 245.42 73.3601 246.815 77.0697C248.189 80.6074 249.129 84.6506 249.402 90.5637C249.675 96.5021 249.736 98.3922 249.736 113.488C249.736 128.589 249.67 130.48 249.402 136.408C249.134 142.321 248.189 146.364 246.815 149.902C245.42 153.612 243.233 156.973 240.406 159.752C237.627 162.582 234.266 164.766 230.561 166.16C227.023 167.535 222.98 168.475 217.067 168.748C211.134 169.021 209.244 169.082 194.143 169.082C179.041 169.082 177.151 169.016 171.223 168.748C165.31 168.48 161.267 167.535 157.729 166.16C154.019 164.765 150.658 162.578 147.879 159.752C145.051 156.976 142.862 153.616 141.465 149.907C140.096 146.369 139.156 142.326 138.883 136.413C138.61 130.475 138.549 128.584 138.549 113.488C138.549 98.3872 138.615 96.497 138.883 90.5738C139.151 84.6506 140.096 80.6074 141.465 77.0697C142.864 73.3605 145.054 70.0008 147.884 67.2246C150.659 64.3969 154.017 62.2083 157.724 60.8112C161.262 59.4416 165.305 58.5015 171.218 58.2286H171.223ZM216.607 68.2354C210.745 67.9675 208.986 67.912 194.143 67.912C179.299 67.912 177.54 67.9675 171.678 68.2354C166.255 68.483 163.314 69.3877 161.353 70.1508C158.76 71.1616 156.905 72.3594 154.959 74.3052C153.115 76.0996 151.696 78.284 150.805 80.6984C150.042 82.6593 149.137 85.6007 148.89 91.0236C148.622 96.8862 148.566 98.6449 148.566 113.488C148.566 128.332 148.622 130.09 148.89 135.953C149.137 141.376 150.042 144.317 150.805 146.278C151.695 148.689 153.115 150.877 154.959 152.671C156.754 154.516 158.942 155.936 161.353 156.826C163.314 157.589 166.255 158.494 171.678 158.741C177.54 159.009 179.294 159.065 194.143 159.065C208.991 159.065 210.745 159.009 216.607 158.741C222.03 158.494 224.972 157.589 226.932 156.826C229.525 155.815 231.38 154.617 233.326 152.671C235.17 150.877 236.591 148.689 237.48 146.278C238.243 144.317 239.148 141.376 239.395 135.953C239.663 130.09 239.719 128.332 239.719 113.488C239.719 98.6449 239.663 96.8862 239.395 91.0236C239.148 85.6007 238.243 82.6593 237.48 80.6984C236.469 78.1057 235.271 76.2509 233.326 74.3052C231.531 72.4609 229.347 71.0414 226.932 70.1508C224.972 69.3877 222.03 68.483 216.607 68.2354ZM187.042 130.626C191.007 132.277 195.423 132.5 199.535 131.257C203.646 130.013 207.199 127.381 209.585 123.81C211.972 120.238 213.045 115.949 212.62 111.674C212.195 107.4 210.3 103.406 207.258 100.373C205.318 98.4351 202.973 96.9509 200.391 96.0277C197.809 95.1045 195.054 94.7653 192.326 95.0345C189.597 95.3036 186.962 96.1744 184.61 97.5843C182.258 98.9941 180.248 100.908 178.725 103.188C177.201 105.468 176.202 108.057 175.799 110.769C175.397 113.481 175.6 116.249 176.396 118.873C177.191 121.497 178.559 123.913 180.4 125.945C182.24 127.977 184.509 129.576 187.042 130.626ZM173.937 93.2827C176.59 90.6293 179.74 88.5244 183.207 87.0884C186.674 85.6524 190.39 84.9133 194.143 84.9133C197.895 84.9133 201.611 85.6524 205.078 87.0884C208.545 88.5244 211.695 90.6293 214.348 93.2827C217.002 95.9361 219.106 99.0862 220.542 102.553C221.979 106.02 222.718 109.736 222.718 113.488C222.718 117.241 221.979 120.957 220.542 124.424C219.106 127.89 217.002 131.041 214.348 133.694C208.989 139.053 201.721 142.063 194.143 142.063C186.564 142.063 179.296 139.053 173.937 133.694C168.578 128.335 165.568 121.067 165.568 113.488C165.568 105.91 168.578 98.6416 173.937 93.2827ZM229.055 89.1688C229.713 88.5485 230.239 87.8026 230.603 86.9753C230.967 86.1479 231.162 85.2559 231.175 84.352C231.188 83.4482 231.02 82.5509 230.68 81.7133C230.34 80.8757 229.836 80.1147 229.196 79.4755C228.557 78.8364 227.796 78.3319 226.959 77.9921C226.121 77.6523 225.224 77.484 224.32 77.4972C223.416 77.5103 222.524 77.7047 221.697 78.0688C220.869 78.4329 220.123 78.9593 219.503 79.6169C218.297 80.8957 217.636 82.5942 217.662 84.352C217.688 86.1098 218.397 87.7885 219.64 89.0315C220.884 90.2746 222.562 90.9843 224.32 91.0099C226.078 91.0356 227.776 90.3751 229.055 89.1688Z" fill="#5B7DF5"/>
</g>
<defs>
<filter id="filter0_dddddd" x="0.654236" y="0" width="388.178" height="408.178" filterUnits="userSpaceOnUse" color-interpolation-filters="sRGB">
<feFlood flood-opacity="0" result="BackgroundImageFix"/>
<feColorMatrix in="SourceAlpha" type="matrix" values="0 0 0 0 0 0 0 0 0 0 0 0 0 0 0 0 0 0 127 0" result="hardAlpha"/>
<feOffset dy="2.76726"/>
<feGaussianBlur stdDeviation="1.1069"/>
<feColorMatrix type="matrix" values="0 0 0 0 0 0 0 0 0 0 0 0 0 0 0 0 0 0 0.0196802 0"/>
<feBlend mode="normal" in2="BackgroundImageFix" result="effect1_dropShadow"/>
<feColorMatrix in="SourceAlpha" type="matrix" values="0 0 0 0 0 0 0 0 0 0 0 0 0 0 0 0 0 0 127 0" result="hardAlpha"/>
<feOffset dy="6.6501"/>
<feGaussianBlur stdDeviation="2.66004"/>
<feColorMatrix type="matrix" values="0 0 0 0 0 0 0 0 0 0 0 0 0 0 0 0 0 0 0.0282725 0"/>
<feBlend mode="normal" in2="effect1_dropShadow" result="effect2_dropShadow"/>
<feColorMatrix in="SourceAlpha" type="matrix" values="0 0 0 0 0 0 0 0 0 0 0 0 0 0 0 0 0 0 127 0" result="hardAlpha"/>
<feOffset dy="12.5216"/>
<feGaussianBlur stdDeviation="5.00862"/>
<feColorMatrix type="matrix" values="0 0 0 0 0 0 0 0 0 0 0 0 0 0 0 0 0 0 0.035 0"/>
<feBlend mode="normal" in2="effect2_dropShadow" result="effect3_dropShadow"/>
<feColorMatrix in="SourceAlpha" type="matrix" values="0 0 0 0 0 0 0 0 0 0 0 0 0 0 0 0 0 0 127 0" result="hardAlpha"/>
<feOffset dy="22.3363"/>
<feGaussianBlur stdDeviation="8.93452"/>
<feColorMatrix type="matrix" values="0 0 0 0 0 0 0 0 0 0 0 0 0 0 0 0 0 0 0.0417275 0"/>
<feBlend mode="normal" in2="effect3_dropShadow" result="effect4_dropShadow"/>
<feColorMatrix in="SourceAlpha" type="matrix" values="0 0 0 0 0 0 0 0 0 0 0 0 0 0 0 0 0 0 127 0" result="hardAlpha"/>
<feOffset dy="41.7776"/>
<feGaussianBlur stdDeviation="16.711"/>
<feColorMatrix type="matrix" values="0 0 0 0 0 0 0 0 0 0 0 0 0 0 0 0 0 0 0.0503198 0"/>
<feBlend mode="normal" in2="effect4_dropShadow" result="effect5_dropShadow"/>
<feColorMatrix in="SourceAlpha" type="matrix" values="0 0 0 0 0 0 0 0 0 0 0 0 0 0 0 0 0 0 127 0" result="hardAlpha"/>
<feOffset dy="100"/>
<feGaussianBlur stdDeviation="40"/>
<feColorMatrix type="matrix" values="0 0 0 0 0 0 0 0 0 0 0 0 0 0 0 0 0 0 0.07 0"/>
<feBlend mode="normal" in2="effect5_dropShadow" result="effect6_dropShadow"/>
<feBlend mode="normal" in="SourceGraphic" in2="effect6_dropShadow" result="shape"/>
</filter>
<filter id="filter1_i" x="133.495" y="52.8411" width="121.294" height="125.294" filterUnits="userSpaceOnUse" color-interpolation-filters="sRGB">
<feFlood flood-opacity="0" result="BackgroundImageFix"/>
<feBlend mode="normal" in="SourceGraphic" in2="BackgroundImageFix" result="shape"/>
<feColorMatrix in="SourceAlpha" type="matrix" values="0 0 0 0 0 0 0 0 0 0 0 0 0 0 0 0 0 0 127 0" result="hardAlpha"/>
<feOffset dy="4"/>
<feGaussianBlur stdDeviation="7.5"/>
<feComposite in2="hardAlpha" operator="arithmetic" k2="-1" k3="1"/>
<feColorMatrix type="matrix" values="0 0 0 0 0 0 0 0 0 0 0 0 0 0 0 0 0 0 0.2 0"/>
<feBlend mode="normal" in2="shape" result="effect1_innerShadow"/>
</filter>
</defs>
</svg>
