<svg width="390" height="409" viewBox="0 0 390 409" fill="none" xmlns="http://www.w3.org/2000/svg">
<g filter="url(#filter0_dddddd)">
<rect x="80.8271" width="228.178" height="228.178" rx="57" fill="#EBE9E9"/>
</g>
<g filter="url(#filter1_i)">
<path d="M253.158 81.3951C248.938 83.2651 244.405 84.5286 239.639 85.0997C244.557 82.1572 248.236 77.5262 249.99 72.0706C245.369 74.8149 240.313 76.7465 235.04 77.7816C231.494 73.9955 226.797 71.486 221.679 70.6428C216.561 69.7995 211.307 70.6696 206.734 73.1181C202.161 75.5665 198.524 79.4563 196.388 84.1834C194.252 88.9106 193.737 94.2106 194.922 99.2608C185.56 98.7908 176.402 96.3576 168.042 92.1191C159.682 87.8807 152.306 81.9317 146.394 74.6582C144.372 78.1455 143.21 82.1886 143.21 86.4946C143.208 90.3709 144.162 94.1879 145.989 97.6068C147.816 101.026 150.458 103.941 153.682 106.094C149.943 105.975 146.287 104.965 143.018 103.147V103.45C143.018 108.887 144.898 114.157 148.341 118.365C151.783 122.573 156.576 125.46 161.905 126.537C158.436 127.475 154.8 127.614 151.271 126.941C152.775 131.619 155.703 135.71 159.647 138.641C163.591 141.571 168.353 143.196 173.266 143.286C164.926 149.833 154.626 153.384 144.024 153.368C142.146 153.369 140.269 153.259 138.404 153.04C149.166 159.959 161.694 163.632 174.489 163.618C217.801 163.618 241.479 127.745 241.479 96.6327C241.479 95.622 241.453 94.6011 241.408 93.5903C246.014 90.2596 249.989 86.1352 253.148 81.4103L253.158 81.3951Z" fill="#5B7DF5"/>
</g>
<defs>
<filter id="filter0_dddddd" x="0.827148" y="0" width="388.178" height="408.178" filterUnits="userSpaceOnUse" color-interpolation-filters="sRGB">
<feFlood flood-opacity="0" result="BackgroundImageFix"/>
<feColorMatrix in="SourceAlpha" type="matrix" values="0 0 0 0 0 0 0 0 0 0 0 0 0 0 0 0 0 0 127 0" result="hardAlpha"/>
<feOffset dy="2.76726"/>
<feGaussianBlur stdDeviation="1.1069"/>
<feColorMatrix type="matrix" values="0 0 0 0 0 0 0 0 0 0 0 0 0 0 0 0 0 0 0.0196802 0"/>
<feBlend mode="normal" in2="BackgroundImageFix" result="effect1_dropShadow"/>
<feColorMatrix in="SourceAlpha" type="matrix" values="0 0 0 0 0 0 0 0 0 0 0 0 0 0 0 0 0 0 127 0" result="hardAlpha"/>
<feOffset dy="6.6501"/>
<feGaussianBlur stdDeviation="2.66004"/>
<feColorMatrix type="matrix" values="0 0 0 0 0 0 0 0 0 0 0 0 0 0 0 0 0 0 0.0282725 0"/>
<feBlend mode="normal" in2="effect1_dropShadow" result="effect2_dropShadow"/>
<feColorMatrix in="SourceAlpha" type="matrix" values="0 0 0 0 0 0 0 0 0 0 0 0 0 0 0 0 0 0 127 0" result="hardAlpha"/>
<feOffset dy="12.5216"/>
<feGaussianBlur stdDeviation="5.00862"/>
<feColorMatrix type="matrix" values="0 0 0 0 0 0 0 0 0 0 0 0 0 0 0 0 0 0 0.035 0"/>
<feBlend mode="normal" in2="effect2_dropShadow" result="effect3_dropShadow"/>
<feColorMatrix in="SourceAlpha" type="matrix" values="0 0 0 0 0 0 0 0 0 0 0 0 0 0 0 0 0 0 127 0" result="hardAlpha"/>
<feOffset dy="22.3363"/>
<feGaussianBlur stdDeviation="8.93452"/>
<feColorMatrix type="matrix" values="0 0 0 0 0 0 0 0 0 0 0 0 0 0 0 0 0 0 0.0417275 0"/>
<feBlend mode="normal" in2="effect3_dropShadow" result="effect4_dropShadow"/>
<feColorMatrix in="SourceAlpha" type="matrix" values="0 0 0 0 0 0 0 0 0 0 0 0 0 0 0 0 0 0 127 0" result="hardAlpha"/>
<feOffset dy="41.7776"/>
<feGaussianBlur stdDeviation="16.711"/>
<feColorMatrix type="matrix" values="0 0 0 0 0 0 0 0 0 0 0 0 0 0 0 0 0 0 0.0503198 0"/>
<feBlend mode="normal" in2="effect4_dropShadow" result="effect5_dropShadow"/>
<feColorMatrix in="SourceAlpha" type="matrix" values="0 0 0 0 0 0 0 0 0 0 0 0 0 0 0 0 0 0 127 0" result="hardAlpha"/>
<feOffset dy="100"/>
<feGaussianBlur stdDeviation="40"/>
<feColorMatrix type="matrix" values="0 0 0 0 0 0 0 0 0 0 0 0 0 0 0 0 0 0 0.07 0"/>
<feBlend mode="normal" in2="effect5_dropShadow" result="effect6_dropShadow"/>
<feBlend mode="normal" in="SourceGraphic" in2="effect6_dropShadow" result="shape"/>
</filter>
<filter id="filter1_i" x="133.668" y="56.4439" width="121.294" height="125.294" filterUnits="userSpaceOnUse" color-interpolation-filters="sRGB">
<feFlood flood-opacity="0" result="BackgroundImageFix"/>
<feBlend mode="normal" in="SourceGraphic" in2="BackgroundImageFix" result="shape"/>
<feColorMatrix in="SourceAlpha" type="matrix" values="0 0 0 0 0 0 0 0 0 0 0 0 0 0 0 0 0 0 127 0" result="hardAlpha"/>
<feOffset dy="4"/>
<feGaussianBlur stdDeviation="7.5"/>
<feComposite in2="hardAlpha" operator="arithmetic" k2="-1" k3="1"/>
<feColorMatrix type="matrix" values="0 0 0 0 0 0 0 0 0 0 0 0 0 0 0 0 0 0 0.2 0"/>
<feBlend mode="normal" in2="shape" result="effect1_innerShadow"/>
</filter>
</defs>
</svg>
